<?xml version="1.0" encoding="UTF-8"?>
<svg  viewBox="0 0 90 104" version="1.1" xmlns="http://www.w3.org/2000/svg" xmlns:xlink="http://www.w3.org/1999/xlink">
    <!-- Generator: Sketch 51.3 (57544) - http://www.bohemiancoding.com/sketch -->
    <title>Group</title>
    <desc>Created with Sketch.</desc>
    <defs></defs>
    <g id="Baxtabot2" stroke="none" stroke-width="1" fill="none" fill-rule="evenodd">
        <g class="" id="Group" transform="translate(0.000000, 1.000000)">
            <path d="M51.072,81.342 L47.037,80.157 L47.037,76.534 C47.037,76.452 47.022,76.374 47.013,76.294 C49.763,75.609 51.764,73.532 51.764,71.075 C51.764,68.06 48.752,65.616 45.038,65.616 C41.324,65.616 38.312,68.06 38.312,71.075 C38.312,73.532 40.312,75.609 43.063,76.294 C43.053,76.374 43.039,76.452 43.039,76.534 L43.039,80.157 L39.004,81.342 C37.944,81.654 37.337,82.765 37.649,83.824 C37.905,84.696 38.703,85.262 39.567,85.262 C39.754,85.262 39.943,85.236 40.131,85.18 L45.039,83.739 L49.947,85.18 C50.135,85.236 50.325,85.262 50.511,85.262 C51.375,85.262 52.173,84.697 52.429,83.824 C52.739,82.765 52.132,81.653 51.072,81.342 Z" class="" id="Shape" fill="#000000" fill-rule="nonzero"></path>
            <path d="M45.53,58.059 C45.352,58.059 45.173,58.061 45.082,58.066 C39.996,57.928 35.794,59.463 32.889,62.426 C29.851,65.524 28.303,70.146 28.411,75.717 C28.302,81.364 29.849,85.987 32.887,89.084 C35.69,91.942 39.721,93.453 44.544,93.453 C44.722,93.453 44.901,93.451 44.992,93.446 C45.173,93.451 45.351,93.453 45.53,93.453 C50.353,93.453 54.384,91.941 57.187,89.084 C60.225,85.986 61.772,81.364 61.663,75.795 C61.772,70.147 60.225,65.524 57.186,62.427 C54.385,59.569 50.354,58.059 45.53,58.059 Z M54.332,86.283 C52.269,88.386 49.308,89.453 45.53,89.453 L44.992,89.448 L44.544,89.453 C40.767,89.453 37.805,88.387 35.742,86.283 C33.473,83.97 32.322,80.344 32.411,75.717 C32.323,71.167 33.475,67.54 35.744,65.227 C37.806,63.125 40.766,62.059 44.542,62.059 C44.691,62.059 44.841,62.061 45.082,62.064 L45.53,62.059 C49.307,62.059 52.269,63.125 54.331,65.228 C56.6,67.541 57.752,71.167 57.663,75.795 C57.752,80.343 56.6,83.97 54.332,86.283 Z" class="" id="Shape" fill="#000000" fill-rule="nonzero"></path>
            <circle id="Oval" fill="#000000" fill-rule="nonzero" cx="31.975" cy="53.848" r="3.518"></circle>
            <circle id="Oval" fill="#000000" fill-rule="nonzero" cx="58.479" cy="53.848" r="3.518"></circle>
            <path d="M73.977,23.368 C68.5,23.368 63.407,26.214 60.494,30.756 C55.775,28.619 50.545,27.419 45.037,27.419 C39.506,27.419 34.256,28.629 29.522,30.782 C26.612,26.226 21.511,23.368 16.023,23.368 C7.188,23.368 0,30.557 0,39.392 C0,45.632 3.6,51.209 9.128,53.845 C8.026,57.378 7.431,61.134 7.431,65.026 C7.431,85.762 24.301,102.632 45.037,102.632 C65.773,102.632 82.643,85.762 82.643,65.026 C82.643,61.123 82.044,57.358 80.936,53.815 C86.428,51.166 90,45.607 90,39.392 C90,30.557 82.812,23.368 73.977,23.368 Z M4,39.392 C4,32.762 9.394,27.369 16.023,27.369 C20.022,27.369 23.748,29.39 25.959,32.637 C24.989,33.211 24.049,33.828 23.137,34.483 C21.539,32.156 18.881,30.679 15.982,30.679 C11.188,30.679 7.288,34.579 7.288,39.373 C7.288,42.703 9.144,45.638 11.988,47.096 C11.459,48.068 10.977,49.068 10.533,50.089 C6.562,48.051 4,43.955 4,39.392 Z M14.107,43.669 C12.434,42.935 11.287,41.245 11.287,39.373 C11.287,36.784 13.392,34.679 15.981,34.679 C17.649,34.679 19.176,35.582 20.012,36.986 C17.791,38.97 15.808,41.214 14.107,43.669 Z M45.037,98.632 C26.507,98.632 11.431,83.556 11.431,65.026 C11.431,46.496 26.507,31.42 45.037,31.42 C50.542,31.42 55.737,32.759 60.328,35.116 C60.372,35.141 60.411,35.172 60.457,35.194 C60.481,35.205 60.506,35.209 60.529,35.22 C67.766,38.997 73.461,45.328 76.414,53.013 C76.431,53.122 76.451,53.232 76.487,53.341 C76.53,53.471 76.605,53.578 76.67,53.692 C77.944,57.235 78.642,61.051 78.642,65.027 C78.644,83.556 63.567,98.632 45.037,98.632 Z M75.946,43.64 C74.238,41.179 72.246,38.931 70.015,36.944 C70.856,35.564 72.367,34.678 74.018,34.678 C76.607,34.678 78.712,36.783 78.712,39.372 C78.713,41.224 77.589,42.894 75.946,43.64 Z M79.529,50.06 C79.085,49.04 78.601,48.04 78.071,47.069 C80.883,45.601 82.713,42.681 82.713,39.374 C82.713,34.58 78.813,30.68 74.019,30.68 C71.135,30.68 68.488,32.142 66.887,34.448 C65.975,33.794 65.033,33.179 64.063,32.607 C66.276,29.378 69.99,27.369 73.977,27.369 C80.607,27.369 86,32.763 86,39.392 C86,43.932 83.465,48.011 79.529,50.06 Z" class="" id="Shape" fill="#000000" fill-rule="nonzero"></path>
            <path d="M45.5,29.5 L45.5,16.5" class="" id="Line" stroke="#000000" stroke-width="3" stroke-linecap="square"></path>
            <g id="antanae" transform="translate(26.000000, 0.000000)" stroke="#000000">
                <circle id="Oval-2" stroke-width="3" cx="19.5" cy="10.5" r="5.5"></circle>
                <path d="M10.6799066,3 C8.22663554,5.14159416 7,7.54572458 7,10.2123912 C7,12.8790579 8.22663554,15.3448536 10.6799066,17.6097783" id="Line-2" stroke-width="2" stroke-linecap="round"></path>
                <path d="M4.93930515,0 C1.64643505,2.87452594 5.04075354e-17,6.10143764 0,9.68073509 C0,13.2600325 1.64643505,16.5697136 4.93930515,19.6097783" id="Line-2-Copy" stroke-width="2" stroke-linecap="round"></path>
                <path d="M31.6799066,3 C29.2266355,5.14159416 28,7.54572458 28,10.2123912 C28,12.8790579 29.2266355,15.3448536 31.6799066,17.6097783" id="Line-2-Copy-3" stroke-width="2" stroke-linecap="round" transform="translate(29.839953, 10.304889) scale(-1, 1) translate(-29.839953, -10.304889) "></path>
                <path d="M38.9393052,0 C35.6464351,2.87452594 34,6.10143764 34,9.68073509 C34,13.2600325 35.6464351,16.5697136 38.9393052,19.6097783" id="Line-2-Copy-2" stroke-width="2" stroke-linecap="round" transform="translate(36.469653, 9.804889) scale(-1, 1) translate(-36.469653, -9.804889) "></path>
            </g>
        </g>
    </g>
</svg>